#define xbm_fn_wifi_4_width 35
#define xbm_fn_wifi_4_height 9
static unsigned char xbm_fn_wifi_4_bits[] = {
    0x00, 0xc0, 0x1f, 0x00, 0x00, 0x00, 0xfc, 0xff, 0x01, 0x00, 0x80, 0xff,
    0xff, 0x0f, 0x00, 0xe0, 0x3f, 0xe0, 0x3f, 0x00, 0xf0, 0x03, 0x00, 0x7e,
    0x00, 0xfc, 0x00, 0x00, 0xf8, 0x01, 0x3e, 0x00, 0x00, 0xe0, 0x03, 0x1f,
    0x00, 0x00, 0xc0, 0x07, 0x07, 0x00, 0x00, 0x00, 0x07};
