#define xbm_fn_wifi_2_width 19
#define xbm_fn_wifi_2_height 5
static unsigned char xbm_fn_wifi_2_bits[] = {
    0xe0, 0x3f, 0x00, 0xf8, 0xff, 0x00, 0xfe, 0xff, 0x03, 0x3f, 0xc0, 0x07,
    0x0f, 0x80, 0x07};
