#define xbm_fn_wifi_3_width 27
#define xbm_fn_wifi_3_height 7
static unsigned char xbm_fn_wifi_3_bits[] = {
    0x00, 0xfe, 0x03, 0x00, 0xc0, 0xff, 0x1f, 0x00, 0xf0, 0xff, 0x7f, 0x00,
    0xfc, 0x03, 0xfc, 0x01, 0x7e, 0x00, 0xf0, 0x03, 0x1f, 0x00, 0xc0, 0x07,
    0x06, 0x00, 0x00, 0x07};
