#define xbm_icon_beep_off_width 14
#define xbm_icon_beep_off_height 14
static unsigned char xbm_icon_beep_off_bits[] = {
   0x00, 0x2c, 0x10, 0x30, 0x98, 0x18, 0x98, 0x2d, 0x1c, 0x26, 0x1e, 0x23,
   0x9f, 0x21, 0xcf, 0x22, 0x66, 0x22, 0x30, 0x33, 0x98, 0x31, 0x8c, 0x18,
   0x16, 0x18, 0x03, 0x0c };
