#define xbm_icon_beep_on_width 14
#define xbm_icon_beep_on_height 14
static unsigned char xbm_icon_beep_on_bits[] = {
   0x00, 0x0c, 0x10, 0x18, 0x98, 0x18, 0x98, 0x31, 0x1c, 0x33, 0x1e, 0x23,
   0x1f, 0x23, 0x1f, 0x23, 0x1e, 0x23, 0x1c, 0x33, 0x98, 0x31, 0x98, 0x18,
   0x10, 0x18, 0x00, 0x0c };
