#define xbm_icon_dashboard_width 14
#define xbm_icon_dashboard_height 14
static unsigned char xbm_icon_dashboard_bits[] = {
   0xf8, 0x07, 0x0c, 0x0c, 0x46, 0x18, 0x0b, 0x32, 0x11, 0x20, 0xe5, 0x28,
   0x21, 0x21, 0x21, 0x21, 0xc5, 0x28, 0x03, 0x20, 0xe2, 0x31, 0xe6, 0x19,
   0x0c, 0x0c, 0xf8, 0x07 };
