#define xbm_bitmap_scan_width 14
#define xbm_bitmap_scan_height 14
static unsigned char xbm_icon_scan_bits[] = {
   0x80, 0x07, 0xe0, 0x1c, 0x20, 0x10, 0x30, 0x33, 0x10, 0x26, 0x90, 0x21,
   0x30, 0x33, 0x20, 0x10, 0xe0, 0x1c, 0xb0, 0x07, 0x18, 0x00, 0x0c, 0x00,
   0x06, 0x00, 0x03, 0x00 };
