#define xbm_icon_sleep_width 14
#define xbm_icon_sleep_height 14
static unsigned char xbm_icon_sleep_bits[] = {
   0x80, 0x3f, 0x80, 0x3f, 0x00, 0x30, 0x00, 0x18, 0x7f, 0x0c, 0x7f, 0x06,
   0x60, 0x03, 0xb0, 0x01, 0x98, 0x3f, 0x8c, 0x3f, 0x06, 0x00, 0x03, 0x00,
   0x7f, 0x00, 0x7f, 0x00 };
