#define xbm_icon_wifi_width 14
#define xbm_icon_wifi_height 14
static unsigned char xbm_icon_wifi_bits[] = {
   0xf8, 0x07, 0xfe, 0x1f, 0x07, 0x38, 0x01, 0x20, 0xf0, 0x03, 0xf8, 0x07,
   0x0c, 0x0c, 0x00, 0x00, 0xc0, 0x00, 0xe0, 0x01, 0x00, 0x00, 0x00, 0x00,
   0xc0, 0x00, 0xc0, 0x00 };
